<?xml version="1.0" standalone="no"?>
<!DOCTYPE svg PUBLIC "-//W3C//DTD SVG 20010904//EN"
 "http://www.w3.org/TR/2001/REC-SVG-20010904/DTD/svg10.dtd">
<svg version="1.0" xmlns="http://www.w3.org/2000/svg"
 width="435.000000pt" height="435.000000pt" viewBox="0 0 435.000000 435.000000"
 preserveAspectRatio="xMidYMid meet">
<metadata>
Created by potrace 1.11, written by Peter Selinger 2001-2013
</metadata>
<g transform="translate(0.000000,435.000000) scale(0.100000,-0.100000)"
fill="#000000" stroke="none">
<path d="M1018 2703 c7 -3 16 -2 19 1 4 3 -2 6 -13 5 -11 0 -14 -3 -6 -6z"/>
<path d="M1268 2673 c7 -3 16 -2 19 1 4 3 -2 6 -13 5 -11 0 -14 -3 -6 -6z"/>
<path d="M730 2643 l-25 -26 33 22 c31 22 39 32 25 30 -5 0 -19 -12 -33 -26z"/>
<path d="M1085 2650 c3 -5 11 -10 16 -10 6 0 7 5 4 10 -3 6 -11 10 -16 10 -6
0 -7 -4 -4 -10z"/>
<path d="M848 2643 c7 -3 16 -2 19 1 4 3 -2 6 -13 5 -11 0 -14 -3 -6 -6z"/>
<path d="M664 2625 c-16 -12 -17 -14 -3 -15 9 0 19 7 23 15 7 19 5 19 -20 0z"/>
<path d="M1036 2633 c-4 -4 -11 -8 -14 -8 -25 -2 -62 -17 -62 -26 0 -6 5 -7
13 -2 6 4 31 10 55 13 23 3 43 10 43 15 0 13 -24 18 -35 8z"/>
<path d="M1198 2623 c13 -3 19 -9 16 -15 -4 -7 -2 -8 4 -4 21 13 13 26 -15 25
-24 -2 -25 -2 -5 -6z"/>
<path d="M830 2616 c0 -2 18 -6 39 -8 22 -2 37 0 35 4 -5 8 -74 11 -74 4z"/>
<path d="M765 2590 c-3 -11 -11 -20 -17 -20 -6 0 -7 -5 -2 -12 5 -7 9 -20 8
-28 -1 -8 -2 -23 -3 -32 -1 -14 -8 -16 -38 -11 -26 4 -34 3 -29 -5 4 -7 14
-12 22 -12 8 0 14 -4 14 -9 0 -5 10 -12 23 -14 16 -3 13 -5 -10 -6 -37 -1 -41
-8 -16 -26 15 -12 14 -12 -11 -8 -15 3 -30 12 -33 19 -3 8 -11 14 -19 14 -8 0
-14 5 -14 10 0 6 5 10 10 10 6 0 10 5 10 10 0 6 -6 10 -14 10 -10 0 -13 -9
-11 -31 4 -26 2 -30 -13 -24 -9 4 -35 9 -57 11 l-40 4 40 -15 c22 -8 54 -15
70 -16 17 -1 23 -3 12 -6 -9 -2 -15 -9 -12 -14 4 -5 -13 -9 -37 -9 -41 0 -42
-1 -18 -13 17 -9 35 -11 55 -5 40 11 58 10 50 -2 -3 -5 -15 -10 -25 -10 -13 0
-17 -5 -14 -15 4 -8 4 -15 1 -15 -15 0 -57 24 -57 32 0 5 -5 6 -10 3 -6 -4 -1
-14 12 -26 l23 -19 -35 5 c-26 4 -29 3 -11 -3 14 -4 27 -14 29 -21 3 -9 -2
-11 -17 -6 -12 3 -21 2 -21 -4 0 -13 -41 -5 -51 10 -4 7 -9 8 -13 1 -8 -14 39
-43 58 -36 9 3 16 1 16 -5 0 -6 -7 -11 -15 -11 -8 0 -15 -7 -15 -15 0 -8 -4
-15 -10 -15 -5 0 -10 9 -10 20 0 11 -5 20 -10 20 -6 0 -9 -6 -8 -12 2 -7 -5
-12 -14 -10 -9 1 -22 -7 -28 -18 -6 -12 -22 -20 -38 -21 -17 -1 -21 -3 -9 -6
9 -2 15 -9 11 -14 -3 -5 -9 -7 -14 -4 -5 3 -13 -3 -19 -13 -11 -21 -52 -23
-59 -2 -3 9 1 11 12 7 12 -5 16 0 16 18 0 22 -3 24 -30 19 -20 -4 -30 -2 -30
5 0 7 -5 9 -10 6 -6 -4 -8 -11 -5 -16 4 -5 1 -9 -4 -9 -6 0 -11 -9 -11 -20 0
-10 -8 -35 -17 -55 -14 -29 -15 -41 -6 -66 11 -29 2 -73 -18 -89 -9 -7 -5 -52
5 -68 4 -7 5 -24 2 -38 -4 -14 -2 -24 4 -24 5 0 10 -5 10 -11 0 -6 -7 -9 -15
-5 -9 3 -15 0 -15 -9 0 -8 7 -15 15 -15 8 0 15 -4 15 -10 0 -5 -8 -10 -17 -10
-14 0 -15 -2 -4 -9 7 -5 10 -14 7 -20 -4 -6 0 -11 11 -11 17 -1 17 -1 0 -14
-18 -14 -18 -15 0 -25 17 -10 17 -10 -1 -11 -16 0 -17 -3 -8 -12 21 -21 13
-27 -18 -11 -17 8 -37 12 -45 9 -17 -6 -21 -46 -5 -46 6 0 10 -6 10 -14 0 -8
10 -23 22 -33 13 -10 28 -28 34 -38 6 -11 43 -37 82 -57 66 -34 77 -37 134
-32 104 8 117 12 181 60 49 38 64 44 76 35 9 -6 23 -14 31 -18 8 -4 23 -14 33
-24 10 -9 38 -27 62 -39 38 -20 55 -22 124 -18 44 3 86 9 93 15 7 6 29 14 48
18 36 8 142 83 159 112 8 15 14 13 47 -17 120 -105 301 -98 420 18 l42 40 42
-44 c23 -24 63 -55 88 -69 124 -70 323 -27 458 98 31 29 60 54 65 55 6 2 26
-9 47 -25 20 -15 44 -32 53 -38 34 -21 75 -49 94 -66 11 -9 40 -24 66 -32 39
-13 55 -14 120 -2 98 17 160 46 230 108 17 15 38 27 45 27 8 0 34 -18 56 -40
23 -22 48 -40 55 -40 7 0 17 -9 23 -20 5 -10 33 -31 61 -45 47 -23 60 -25 154
-22 101 3 103 4 175 47 39 24 74 49 77 56 10 27 49 23 128 -15 106 -51 130
-57 195 -56 58 1 112 22 205 82 71 46 98 71 92 87 -3 7 -1 18 5 24 7 7 4 12
-10 16 -11 4 -23 13 -26 21 -6 18 -5 18 28 5 17 -6 26 -6 26 0 0 6 -5 10 -11
10 -7 0 -9 10 -7 24 5 23 2 24 -23 19 -31 -6 -79 23 -71 45 2 6 -3 12 -11 12
-10 0 -13 9 -11 30 3 28 2 29 -22 18 -19 -9 -27 -9 -37 1 -10 11 -8 12 11 6
16 -5 22 -2 22 9 0 9 -5 16 -11 16 -6 0 -9 6 -6 14 4 9 -8 18 -34 26 -21 7
-39 16 -39 20 0 4 -21 7 -47 8 -27 0 -43 -2 -36 -4 16 -7 5 -34 -11 -28 -22 9
-40 -23 -28 -50 6 -14 7 -27 2 -32 -5 -5 -5 -15 1 -24 8 -11 12 -12 16 -3 3 9
11 9 29 -3 23 -16 24 -42 1 -27 -21 13 -44 13 -44 -1 0 -9 7 -12 16 -8 14 5
14 3 2 -11 -11 -15 -11 -17 2 -17 8 0 17 6 20 13 7 20 17 3 11 -20 -4 -14 -11
-19 -25 -16 -10 3 -19 1 -19 -5 0 -5 -10 -12 -22 -16 -19 -5 -21 -8 -8 -16 13
-8 12 -10 -3 -10 -10 0 -15 -4 -12 -10 3 -5 2 -10 -4 -10 -6 0 -8 -6 -6 -12 2
-7 -2 -22 -11 -33 -13 -17 -17 -18 -36 -6 -18 11 -20 11 -15 -4 4 -9 3 -14 -1
-13 -4 2 -20 10 -37 17 -16 7 -38 17 -47 22 -32 16 -66 10 -111 -21 -24 -16
-50 -36 -57 -45 -7 -8 -19 -15 -26 -15 -8 0 -14 -4 -14 -9 0 -11 -82 -28 -163
-34 -55 -4 -58 -3 -72 26 -8 16 -12 34 -9 39 4 5 -2 9 -12 8 -11 -1 -25 -2
-31 -1 -15 1 -18 41 -3 41 6 0 10 -7 10 -15 0 -17 35 -20 46 -4 4 8 -1 9 -17
4 -23 -7 -23 -6 -5 7 10 8 16 20 12 26 -3 5 0 13 6 15 9 4 6 11 -10 24 -18 15
-20 21 -10 31 9 9 8 12 -5 12 -23 0 -21 17 3 25 23 7 26 21 8 28 -10 4 -10 7
-1 17 10 11 9 16 -5 26 -16 13 -16 13 1 14 11 0 17 6 14 13 -2 6 -14 12 -27
11 l-23 -1 22 18 c25 21 22 55 -7 62 -16 4 -16 5 1 6 22 1 22 10 0 26 -15 11
-15 15 -4 29 12 14 12 16 -3 10 -10 -4 -16 -1 -16 9 0 9 8 18 18 20 13 4 12 5
-5 6 -12 0 -28 -5 -35 -13 -11 -11 -15 -11 -25 3 -11 14 -14 14 -23 1 -8 -13
-11 -13 -19 -1 -5 8 -18 12 -30 8 -12 -3 -24 -1 -27 4 -3 6 -10 6 -17 1 -22
-16 -231 0 -243 19 -3 5 -10 9 -15 9 -6 0 -8 -4 -5 -9 10 -15 -22 -21 -34 -6
-14 17 -3 38 17 31 8 -3 11 -1 8 4 -9 14 -33 12 -38 -2 -3 -10 -7 -10 -18 -2
-22 17 -72 27 -63 13 4 -8 3 -9 -5 -5 -6 4 -9 11 -6 16 8 13 -38 20 -54 7 -9
-6 -7 -1 4 11 l19 23 -29 -7 c-25 -5 -28 -4 -17 7 20 21 14 29 -19 22 -18 -3
-34 -1 -38 5 -4 7 -19 6 -46 -4 -22 -8 -53 -12 -70 -9 -20 3 -25 2 -16 -4 11
-7 10 -10 -5 -14 -10 -3 6 -5 36 -5 30 1 71 -4 90 -9 30 -9 32 -11 15 -17 -11
-4 -28 -12 -38 -17 -11 -6 -22 -8 -25 -5 -3 3 0 6 6 6 6 0 9 6 6 14 -7 17 -42
28 -50 15 -3 -5 2 -9 10 -9 9 0 16 -7 16 -15 0 -11 -7 -14 -27 -10 -22 4 -24
3 -8 -3 16 -7 17 -10 5 -14 -8 -3 -5 -3 8 -1 28 4 28 -11 0 -33 -15 -10 -17
-14 -6 -11 12 4 15 2 11 -9 -7 -18 -28 -18 -46 0 -8 9 -24 12 -36 9 -20 -5
-20 -6 -4 -18 9 -7 24 -10 32 -7 9 3 12 1 7 -6 -4 -7 -19 -9 -35 -6 -31 6 -53
-12 -27 -22 22 -8 20 -31 -3 -43 -14 -8 -20 -7 -25 4 -3 8 -11 15 -18 15 -9 0
-8 -3 2 -10 13 -9 13 -10 0 -10 -13 0 -13 -1 0 -10 11 -7 12 -10 2 -10 -8 0
-16 9 -19 19 -4 17 -9 18 -35 9 -18 -7 -27 -15 -24 -24 6 -17 -8 -18 -35 -4
-11 7 -19 7 -19 1 0 -5 6 -12 13 -14 6 -3 2 -6 -11 -6 -16 -1 -21 3 -16 12 5
8 2 8 -9 -2 -9 -7 -17 -9 -17 -4 0 6 -12 8 -27 6 -22 -4 -25 -2 -13 6 12 9 11
11 -8 11 -13 0 -22 -5 -20 -13 3 -13 -3 -17 -24 -17 -9 0 -8 4 2 10 13 9 13
10 0 10 -13 0 -13 1 0 10 12 8 11 10 -7 10 -15 0 -23 -6 -23 -17 0 -13 -3 -14
-12 -5 -7 7 -18 12 -26 12 -12 0 -12 -3 -2 -15 15 -19 7 -19 -28 -1 -15 7 -42
12 -60 11 -17 -2 -35 1 -38 6 -3 5 -18 9 -33 9 -40 0 -53 18 -30 41 10 10 25
19 32 19 8 0 7 4 -3 10 -22 14 -27 12 -33 -10 -6 -22 -31 -26 -73 -10 -19 7
-30 7 -40 -1 -10 -8 -14 -8 -14 0 0 6 -7 11 -16 11 -10 0 -14 -6 -10 -15 3 -8
1 -15 -3 -15 -13 0 -22 30 -14 43 3 7 3 9 -2 5 -5 -5 -15 1 -22 12 -13 18 -23
20 -81 17 -47 -4 -60 -2 -48 5 10 6 40 11 67 12 35 1 48 5 44 14 -5 15 11 16
20 2 5 -8 11 -8 19 -1 7 6 17 7 21 3 5 -4 5 -1 1 6 -4 6 -16 12 -27 12 -10 0
-19 5 -19 10 0 6 -7 10 -15 10 -8 0 -15 5 -15 11 0 5 -4 8 -10 4 -5 -3 -7 -12
-4 -19 4 -11 -3 -13 -37 -9 -30 4 -40 3 -35 -5 4 -7 15 -12 24 -13 14 0 13 -2
-3 -9 -11 -4 -24 -4 -29 1 -6 5 -21 9 -35 10 l-26 1 25 8 c23 7 23 8 3 9 -12
1 -25 6 -29 12 -5 8 8 9 45 4 32 -4 51 -3 51 3 0 6 -9 8 -20 5 -11 -3 -27 0
-35 7 -14 12 -36 17 -100 23 -11 1 -26 6 -32 10 -7 5 -17 6 -21 3 -4 -2 -14
-1 -22 5 -10 5 12 7 60 5 41 -2 67 -2 58 1 -19 5 -25 23 -8 23 5 0 7 7 3 16
-5 15 -7 15 -15 0 -6 -11 -23 -16 -56 -16 -44 1 -46 2 -27 16 19 14 17 15 -22
10 -24 -3 -43 -3 -43 0 0 3 12 16 28 29 l27 24 -41 -6 c-36 -5 -43 -3 -49 16
-5 18 -9 19 -28 9 -20 -10 -21 -10 -8 6 14 17 12 17 -31 11 -28 -4 -54 -3 -65
4 -10 6 -13 11 -5 11 7 0 11 4 7 9 -3 6 3 14 12 20 10 6 12 11 6 11 -7 0 -13
5 -13 11 0 8 4 8 13 1 6 -5 32 -12 57 -14 25 -3 53 -8 63 -12 10 -5 17 -4 17
3 0 6 -7 11 -15 11 -8 0 -15 7 -15 15 0 12 4 13 19 5 26 -14 31 -13 25 5 -4 9
0 15 10 15 9 0 16 5 16 10 0 6 -7 10 -15 10 -8 0 -15 -5 -15 -11 0 -14 -89 -4
-104 11 -6 6 -14 10 -20 10 -5 0 0 -9 12 -20 12 -11 29 -20 38 -20 10 0 14 -3
11 -7 -4 -3 -25 0 -47 7 -30 10 -43 10 -54 1 -11 -9 -15 -8 -20 4 -7 19 -45
20 -52 0 -4 -8 -10 -12 -16 -9 -5 4 -5 11 1 18 6 7 7 17 3 21 -4 5 -1 4 7 0
11 -6 13 -4 8 9 -5 13 -3 16 11 14 9 -2 16 -10 15 -16 -2 -7 4 -12 12 -12 8 0
15 5 15 10 0 6 7 10 17 10 24 0 10 10 -23 16 -35 6 -44 14 -17 14 38 0 83 -12
77 -21 -3 -5 5 -9 17 -9 22 0 22 0 3 15 -19 14 -35 18 -123 30 -40 5 -43 4
-38 -15 3 -11 1 -20 -3 -20 -5 0 -17 -3 -27 -6 -17 -5 -17 -5 -1 9 25 20 10
29 -18 10 -14 -9 -28 -13 -31 -9 -4 4 3 9 15 13 15 3 22 13 22 28 0 30 -10 55
-21 55 -10 0 -7 -29 4 -47 4 -6 3 -14 -3 -18 -5 -3 -10 1 -10 9 0 9 -5 16 -11
16 -5 0 -9 -10 -7 -22 2 -14 -2 -22 -9 -20 -7 1 -13 -5 -13 -13 0 -8 -6 -13
-12 -11 -7 3 -26 7 -41 11 -44 9 -17 35 29 28 31 -5 34 -4 34 21 0 14 5 26 10
26 6 0 10 5 10 10 0 6 -7 10 -15 10 -10 0 -15 -10 -15 -30 0 -33 -2 -34 -28
-21 -9 5 -25 12 -35 15 -17 5 -17 7 -1 31 9 14 12 25 6 25 -6 0 -14 -9 -17
-20z m60 -130 c4 -6 32 -9 66 -7 32 3 59 1 59 -3 0 -11 -27 -20 -35 -12 -3 3
-22 5 -41 3 -19 -1 -40 2 -47 7 -7 5 -21 12 -32 15 -19 4 -18 5 2 6 12 0 25
-4 28 -9z m10 -40 c-3 -5 -12 -10 -18 -10 -7 0 -6 4 3 10 19 12 23 12 15 0z
m109 -9 c4 -5 -3 -7 -14 -4 -23 6 -26 13 -6 13 8 0 17 -4 20 -9z m91 -1 c3 -5
1 -10 -4 -10 -6 0 -11 5 -11 10 0 6 2 10 4 10 3 0 8 -4 11 -10z m-319 -25 c18
-9 23 -15 12 -15 -24 0 -48 11 -48 21 0 12 3 12 36 -6z m9 -45 c3 -6 -1 -7 -9
-4 -18 7 -21 14 -7 14 6 0 13 -4 16 -10z m445 -50 c0 -5 -4 -10 -10 -10 -5 0
-10 5 -10 10 0 6 5 10 10 10 6 0 10 -4 10 -10z m17 -26 c-3 -3 -12 -4 -19 -1
-8 3 -5 6 6 6 11 1 17 -2 13 -5z m-689 -77 c0 -20 -4 -23 -32 -19 l-31 5 28 9
c15 6 27 14 27 19 0 5 2 9 4 9 2 0 4 -10 4 -23z m507 4 c3 -5 1 -12 -5 -16 -5
-3 -10 1 -10 9 0 18 6 21 15 7z m1540 -2 c12 -19 -3 -22 -27 -5 l-22 16 21 0
c12 0 25 -5 28 -11z m-1335 -3 c0 -2 -7 -6 -15 -10 -8 -3 -15 -1 -15 4 0 6 7
10 15 10 8 0 15 -2 15 -4z m149 -38 c0 -13 -3 -17 -6 -10 -2 6 -12 12 -21 12
-15 0 -15 2 -2 10 23 15 30 12 29 -12z m-1054 2 c3 -5 1 -10 -4 -10 -6 0 -11
5 -11 10 0 6 2 10 4 10 3 0 8 -4 11 -10z m135 -10 c-20 -13 -33 -13 -25 0 3 6
14 10 23 10 15 0 15 -2 2 -10z m954 -19 c3 -5 0 -11 -7 -14 -8 -3 -14 1 -14 9
0 16 13 19 21 5z m-429 -51 c-3 -5 -11 -10 -16 -10 -6 0 -7 5 -4 10 3 6 11 10
16 10 6 0 7 -4 4 -10z m1952 -26 c-3 -3 -12 -4 -19 -1 -8 3 -5 6 6 6 11 1 17
-2 13 -5z m193 -4 c0 -5 -2 -10 -4 -10 -3 0 -8 5 -11 10 -3 6 -1 10 4 10 6 0
11 -4 11 -10z m-1560 -10 c13 -8 13 -10 -2 -10 -9 0 -20 5 -23 10 -8 13 5 13
25 0z m1415 0 c3 -5 2 -10 -4 -10 -5 0 -13 5 -16 10 -3 6 -2 10 4 10 5 0 13
-4 16 -10z m-555 -30 c8 -5 11 -10 5 -10 -5 0 -17 5 -25 10 -8 5 -10 10 -5 10
6 0 17 -5 25 -10z m-685 -10 c7 -12 -2 -12 -30 0 -19 8 -19 9 2 9 12 1 25 -3
28 -9z m2315 -70 l25 -8 -27 -1 c-16 -1 -28 -5 -28 -11 0 -5 -7 -10 -16 -10
-13 0 -14 3 -5 14 9 11 9 15 -1 19 -21 9 25 6 52 -3z m21 -73 c-5 -5 -21 -6
-38 -2 l-28 8 25 7 c31 8 55 1 41 -13z m104 3 c3 -6 -1 -7 -9 -4 -18 7 -21 14
-7 14 6 0 13 -4 16 -10z m61 -77 c-7 -7 -26 7 -26 19 0 6 6 6 15 -2 9 -7 13
-15 11 -17z m-176 -53 c0 -5 -10 -10 -22 -10 -19 0 -20 2 -8 10 19 13 30 13
30 0z m-60 -74 c0 -2 -7 -7 -16 -10 -8 -3 -12 -2 -9 4 6 10 25 14 25 6z"/>
<path d="M1070 2590 c-13 -8 -12 -11 5 -24 11 -8 22 -12 25 -9 3 3 -1 8 -7 10
-7 3 -13 9 -13 15 0 6 7 8 15 4 8 -3 15 -1 15 4 0 13 -20 13 -40 0z"/>
<path d="M969 2563 c-13 -16 -12 -17 4 -4 9 7 17 15 17 17 0 8 -8 3 -21 -13z"/>
<path d="M628 2553 c7 -3 16 -2 19 1 4 3 -2 6 -13 5 -11 0 -14 -3 -6 -6z"/>
<path d="M1015 2550 c-19 -8 -19 -9 3 -9 12 -1 22 4 22 9 0 6 -1 10 -2 9 -2 0
-12 -4 -23 -9z"/>
<path d="M670 2535 c0 -8 4 -15 10 -15 5 0 7 7 4 15 -4 8 -8 15 -10 15 -2 0
-4 -7 -4 -15z"/>
<path d="M535 2530 c3 -5 12 -7 20 -3 21 7 19 13 -6 13 -11 0 -18 -4 -14 -10z"/>
<path d="M590 2528 c0 -12 24 -20 50 -16 17 2 14 5 -14 14 -20 6 -36 7 -36 2z"/>
<path d="M1160 2530 c0 -5 5 -10 11 -10 5 0 7 5 4 10 -3 6 -8 10 -11 10 -2 0
-4 -4 -4 -10z"/>
<path d="M1250 2520 c0 -5 5 -10 11 -10 5 0 7 5 4 10 -3 6 -8 10 -11 10 -2 0
-4 -4 -4 -10z"/>
<path d="M508 2503 c7 -3 16 -2 19 1 4 3 -2 6 -13 5 -11 0 -14 -3 -6 -6z"/>
<path d="M600 2485 c0 -9 -10 -15 -22 -16 -19 -1 -18 -2 6 -10 17 -4 32 -6 35
-4 2 3 0 5 -6 5 -6 0 -9 9 -6 20 3 11 3 20 -1 20 -3 0 -6 -7 -6 -15z"/>
<path d="M1140 2480 c0 -6 7 -10 15 -10 8 0 15 2 15 4 0 2 -7 6 -15 10 -8 3
-15 1 -15 -4z"/>
<path d="M1045 2450 c-3 -5 -2 -10 4 -10 5 0 13 5 16 10 3 6 2 10 -4 10 -5 0
-13 -4 -16 -10z"/>
<path d="M1178 2453 c7 -3 16 -2 19 1 4 3 -2 6 -13 5 -11 0 -14 -3 -6 -6z"/>
<path d="M1247 2413 c-14 -14 -6 -20 19 -15 19 3 22 7 12 13 -16 11 -23 11
-31 2z"/>
<path d="M545 2400 c-8 -13 5 -13 25 0 13 8 13 10 -2 10 -9 0 -20 -4 -23 -10z"/>
<path d="M2380 2406 c0 -2 9 -6 20 -9 11 -3 20 -1 20 4 0 5 -9 9 -20 9 -11 0
-20 -2 -20 -4z"/>
<path d="M470 2392 c0 -12 19 -26 26 -19 2 2 -2 10 -11 17 -9 8 -15 8 -15 2z"/>
<path d="M1077 2383 c-14 -13 -6 -23 17 -23 14 0 28 5 32 11 5 8 8 8 14 0 4
-7 14 -9 26 -4 17 6 17 8 -6 14 -34 9 -75 11 -83 2z"/>
<path d="M355 2371 c-3 -5 -1 -12 5 -16 5 -3 10 1 10 9 0 18 -6 21 -15 7z"/>
<path d="M419 2360 c13 -11 31 -20 40 -20 12 0 10 5 -9 20 -34 27 -63 26 -31
0z"/>
<path d="M529 2341 c-7 -10 -19 -17 -26 -14 -7 3 -13 0 -13 -6 0 -14 13 -14
45 1 26 12 32 23 15 33 -5 3 -15 -3 -21 -14z"/>
<path d="M1190 2350 c0 -5 9 -10 19 -10 11 0 23 5 26 10 4 6 -5 10 -19 10 -14
0 -26 -4 -26 -10z"/>
<path d="M1298 2353 c7 -3 16 -2 19 1 4 3 -2 6 -13 5 -11 0 -14 -3 -6 -6z"/>
<path d="M1220 2330 c-12 -8 -11 -10 8 -10 12 0 22 5 22 10 0 13 -11 13 -30 0z"/>
<path d="M455 2320 c-3 -5 -1 -10 4 -10 6 0 11 5 11 10 0 6 -2 10 -4 10 -3 0
-8 -4 -11 -10z"/>
<path d="M2526 2284 c-4 -10 -1 -14 6 -12 15 5 23 28 10 28 -5 0 -13 -7 -16
-16z"/>
<path d="M1280 2281 c0 -4 11 -6 25 -3 14 2 25 6 25 8 0 2 -11 4 -25 4 -14 0
-25 -4 -25 -9z"/>
<path d="M390 2273 c1 -24 60 -46 60 -23 0 4 10 6 22 2 14 -3 19 -2 14 7 -4 6
-12 9 -17 6 -5 -4 -9 -1 -9 4 0 6 -5 11 -11 11 -5 0 -7 -4 -4 -10 4 -6 -5 -10
-20 -10 -15 0 -24 4 -20 10 3 6 1 10 -4 10 -6 0 -11 -3 -11 -7z"/>
<path d="M2470 2260 c0 -5 5 -10 10 -10 6 0 10 5 10 10 0 6 -4 10 -10 10 -5 0
-10 -4 -10 -10z"/>
<path d="M366 2245 c-3 -8 -1 -15 4 -15 13 0 22 18 11 24 -5 3 -11 -1 -15 -9z"/>
<path d="M1318 2253 c6 -2 18 -2 25 0 6 3 1 5 -13 5 -14 0 -19 -2 -12 -5z"/>
<path d="M1410 2250 c0 -5 6 -10 14 -10 7 0 29 -2 47 -5 25 -4 29 -3 14 3 -37
17 -75 23 -75 12z"/>
<path d="M2515 2250 c-3 -5 -1 -10 4 -10 6 0 11 5 11 10 0 6 -2 10 -4 10 -3 0
-8 -4 -11 -10z"/>
<path d="M2584 2253 c3 -3 1 -12 -5 -20 -9 -9 -8 -13 0 -13 6 0 11 5 11 10 0
7 7 7 21 0 25 -14 61 -9 51 6 -4 6 -24 14 -46 17 -21 3 -36 3 -32 0z"/>
<path d="M2680 2226 c0 -2 9 -6 20 -9 11 -3 18 -1 14 4 -5 9 -34 13 -34 5z"/>
<path d="M430 2210 c0 -5 5 -10 11 -10 5 0 7 5 4 10 -3 6 -8 10 -11 10 -2 0
-4 -4 -4 -10z"/>
<path d="M2448 2213 c6 -2 18 -2 25 0 6 3 1 5 -13 5 -14 0 -19 -2 -12 -5z"/>
<path d="M2635 2200 c3 -5 17 -10 30 -10 26 0 42 -16 23 -23 -7 -2 2 -6 20 -9
17 -2 32 -1 32 4 0 4 -7 8 -16 8 -8 0 -13 4 -10 9 7 10 -37 31 -65 31 -11 0
-17 -4 -14 -10z"/>
<path d="M1500 2179 c0 -5 11 -9 25 -9 14 0 25 2 25 4 0 2 -11 6 -25 8 -14 3
-25 1 -25 -3z"/>
<path d="M1588 2163 c7 -3 16 -2 19 1 4 3 -2 6 -13 5 -11 0 -14 -3 -6 -6z"/>
<path d="M1680 2163 c-8 -4 -21 -12 -28 -20 -11 -11 -11 -13 3 -13 10 0 13 -5
9 -12 -5 -8 -1 -7 10 2 12 9 14 16 7 18 -8 3 -5 9 6 18 19 14 17 16 -7 7z"/>
<path d="M2865 2120 c-8 -13 15 -13 35 0 12 8 11 10 -7 10 -12 0 -25 -4 -28
-10z"/>
<path d="M2926 2106 c3 -9 13 -16 22 -16 8 0 13 1 11 3 -2 1 -12 9 -22 16 -15
12 -17 12 -11 -3z"/>
<path d="M1700 2102 c0 -4 9 -8 19 -8 11 0 17 4 15 8 -3 4 -12 8 -20 8 -8 0
-14 -4 -14 -8z"/>
<path d="M3045 2100 c-4 -6 -4 -10 -1 -10 2 0 11 -3 20 -6 9 -3 16 -2 16 4 0
14 -28 23 -35 12z"/>
<path d="M1671 2071 c-9 -6 -5 -8 13 -8 15 0 29 3 32 8 7 11 -27 11 -45 0z"/>
<path d="M1720 2040 c0 -5 5 -10 11 -10 5 0 7 5 4 10 -3 6 -8 10 -11 10 -2 0
-4 -4 -4 -10z"/>
<path d="M1815 1990 c-3 -5 -1 -10 4 -10 6 0 11 5 11 10 0 6 -2 10 -4 10 -3 0
-8 -4 -11 -10z"/>
<path d="M2200 1980 c20 -13 40 -13 40 0 0 6 -12 10 -27 10 -22 0 -25 -2 -13
-10z"/>
<path d="M2138 1963 c6 -2 18 -2 25 0 6 3 1 5 -13 5 -14 0 -19 -2 -12 -5z"/>
<path d="M151 1203 c12 -15 12 -16 -3 -10 -21 7 -32 -7 -21 -27 11 -20 83
-105 112 -133 41 -40 111 -73 180 -84 87 -15 287 -15 331 -1 155 50 182 52
242 21 113 -58 263 -81 363 -58 53 13 146 55 234 108 l54 32 46 -24 c81 -44
203 -68 315 -63 55 3 104 10 110 16 5 5 20 10 33 10 13 0 31 4 41 9 9 5 38 19
63 32 l47 23 63 -26 c126 -52 189 -63 345 -62 96 0 104 2 149 32 46 30 47 31
81 15 19 -9 34 -20 34 -24 0 -9 86 -38 131 -44 100 -13 158 -12 232 1 45 8 97
17 114 20 18 2 58 18 89 35 54 29 58 30 89 15 18 -9 36 -16 40 -16 4 0 13 -7
19 -15 19 -25 132 -47 246 -48 101 -1 110 1 167 31 81 42 143 104 143 142 0
17 -4 30 -9 30 -5 0 -31 -16 -57 -35 -120 -86 -167 -98 -327 -81 -60 6 -194
57 -213 82 -16 20 -66 17 -90 -4 -26 -24 -100 -58 -149 -67 -74 -14 -90 -16
-179 -16 -95 0 -177 22 -248 68 -50 31 -77 29 -140 -8 -52 -31 -56 -32 -170
-30 -123 2 -219 24 -281 65 -32 22 -99 23 -130 3 -12 -8 -59 -28 -104 -45 -73
-28 -94 -32 -183 -32 -55 0 -108 4 -118 9 -49 25 -114 51 -125 51 -7 0 -18 5
-25 12 -25 25 -70 18 -141 -23 -39 -22 -73 -45 -77 -50 -3 -5 -13 -9 -23 -9
-10 0 -29 -8 -42 -18 -65 -49 -224 -46 -358 8 -42 17 -84 35 -93 40 -23 13
-75 13 -83 0 -3 -5 -14 -10 -24 -10 -10 0 -47 -9 -82 -20 -136 -44 -336 -36
-425 16 -41 24 -129 108 -159 152 -9 12 -23 22 -32 22 -13 0 -14 -2 -2 -17z"/>
</g>
</svg>
